<svg width="20" height="20" viewBox="0 0 20 20" fill="none" xmlns="http://www.w3.org/2000/svg">
<path d="M5.41683 11.2502C6.28042 11.0245 7.92271 9.93071 8.3335 9.5835V6.66683L5.8335 5.8335C5.66233 5.15833 5.13121 3.79646 4.5835 3.3335L3.98007 5.21429C2.89604 5.69654 1.12498 7.87054 2.08349 10.4168C2.50016 11.2502 3.36554 14.1668 4.5835 16.2502" stroke="white" stroke-width="1.44841" stroke-linecap="round" stroke-linejoin="round"/>
<path d="M10.0001 5.5026C11.8297 5.1999 15.6353 5.53285 16.2208 9.28631C16.3428 9.84131 16.1476 12.504 14.3911 13.7148C14.0374 13.9586 13.7501 15.0003 13.7501 16.2503" stroke="white" stroke-width="1.44841" stroke-linecap="round" stroke-linejoin="round"/>
<path d="M10.8334 16.6667C10.8334 15.7462 10.0872 15 9.16673 15C8.24627 15 7.50006 15.7462 7.50006 16.6667" stroke="white" stroke-width="1.44841" stroke-linecap="round"/>
<path d="M16.2501 10.0003C16.4584 10.417 17.3744 10.696 18.0116 10.0427C18.3825 9.66241 18.6862 8.47278 17.7492 7.91699" stroke="white" stroke-width="1.44841" stroke-linecap="round" stroke-linejoin="round"/>
</svg>
